<?xml version="1.0" encoding="UTF-8" standalone="no"?>
<svg
   xmlns:dc="http://purl.org/dc/elements/1.1/"
   xmlns:cc="http://creativecommons.org/ns#"
   xmlns:rdf="http://www.w3.org/1999/02/22-rdf-syntax-ns#"
   xmlns:svg="http://www.w3.org/2000/svg"
   xmlns="http://www.w3.org/2000/svg"
   viewBox="0 0 987.17334 482.95999"
   height="482.95999"
   width="987.17334"
   xml:space="preserve"
   id="svg2"
   version="1.1"><metadata
     id="metadata8"><rdf:RDF><cc:Work
         rdf:about=""><dc:format>image/svg+xml</dc:format><dc:type
           rdf:resource="http://purl.org/dc/dcmitype/StillImage" /></cc:Work></rdf:RDF></metadata><defs
     id="defs6" /><g
     transform="matrix(1.3333333,0,0,-1.3333333,0,482.96)"
     id="g10"><g
       transform="scale(0.1)"
       id="g12"><path
         id="path14"
         style="fill:#f1c20e;fill-opacity:1;fill-rule:nonzero;stroke:none"
         d="M 6980.63,3622.19 H 422.969 C 189.688,3622.19 0,3432.35 0,3199.07 V 423.051 C 0,189.77 189.688,0 422.969,0 H 6980.63 c 233.28,0 423.12,189.77 423.12,423.051 V 3199.07 c 0,233.28 -189.84,423.12 -423.12,423.12 v 0" /><path
         id="path16"
         style="fill:#110f0d;fill-opacity:1;fill-rule:evenodd;stroke:none"
         d="M 1066.02,2855.08 V 742.5 h 547.89 v 2112.58 h -547.89" /><path
         id="path18"
         style="fill:#110f0d;fill-opacity:1;fill-rule:evenodd;stroke:none"
         d="m 2783.28,2855.08 -126.95,-987.19 -77.89,536.57 c -23.52,172.03 -45,322.58 -66.49,450.62 h -710.7 V 742.5 h 480.24 l 2.1,1394.69 201.72,-1394.69 h 342.03 l 192.5,1425.39 1.02,-1425.39 H 3500 v 2112.58 h -716.72" /><path
         id="path20"
         style="fill:#110f0d;fill-opacity:1;fill-rule:evenodd;stroke:none"
         d="m 4357.19,2474.06 c 21.4,-12.26 35.86,-31.79 42.03,-59.37 6.09,-26.64 9.22,-88.05 9.22,-183.28 v -818.13 c 0,-141.4 -9.22,-227.42 -27.74,-259.22 -18.36,-31.71 -66.48,-47.03 -145.39,-47.03 v 1386.41 c 59.38,0 100.32,-6.09 121.88,-19.38 z M 4352.03,742.5 c 131.1,0 229.38,7.191 295,21.488 64.38,14.293 119.77,38.903 163.75,75.782 44.06,35.941 75.86,86.011 93.21,149.531 18.43,63.439 28.67,190.389 28.67,379.839 v 741.41 c 0,199.69 -8.21,333.83 -19.46,402.42 -12.26,67.58 -42.96,130.08 -92.18,185.32 -48.13,55.39 -119.77,95.31 -212.97,119.76 -93.21,24.61 -246.8,37.03 -512.03,37.03 h -408.6 V 742.5 h 664.61" /><path
         id="path22"
         style="fill:#110f0d;fill-opacity:1;fill-rule:evenodd;stroke:none"
         d="m 5832.81,1254.46 c 0,-101.41 -5.15,-166.88 -15.39,-193.52 -10.23,-26.64 -54.29,-39.84 -88.12,-39.84 -32.66,0 -54.3,12.18 -65.47,38.75 -10.24,25.62 -16.41,85 -16.41,178.2 v 558.12 c 0,96.33 5.08,155.71 14.38,180.32 10.23,23.51 31.72,35.78 63.44,35.78 33.75,0 78.75,-14.38 90.15,-41.02 11.25,-27.58 17.42,-86.01 17.42,-175.08 z M 5118.99,2855.08 V 742.5 h 493.67 l 34.76,134.141 c 43.99,-54.289 93.21,-94.141 147.42,-121.871 54.38,-26.559 134.15,-39.918 196.57,-39.918 86.09,0 161.79,22.5 224.29,68.589 63.52,45 103.52,99.297 119.93,160.86 17.42,62.339 25.62,156.559 25.62,282.579 v 592.81 c 0,127.97 -2.11,211.02 -8.2,249.84 -5.24,38.91 -22.66,78.91 -50.24,119.93 -28.67,40.93 -68.59,72.57 -121.87,95.23 -54.3,22.5 -116.72,33.75 -189.53,33.75 -62.42,0 -143.28,-12.34 -197.58,-37.97 -53.2,-24.53 -102.42,-62.42 -146.41,-112.58 v 687.19 h -528.43" /></g></g></svg>